<?xml version="1.0" encoding="utf-8"?>
<COLLADA xmlns="http://www.collada.org/2005/11/COLLADASchema" version="1.4.1">
  <asset>
    <contributor><authoring_tool>mirrored_world_lab route preview generator</authoring_tool></contributor>
    <unit name="meter" meter="1"/>
    <up_axis>Z_UP</up_axis>
  </asset>
  <library_effects>
    <effect id="route_preview_effect">
      <profile_COMMON>
        <technique sid="common">
          <constant>
            <emission><color>1.0 0.0 1.0 1.0</color></emission>
          </constant>
        </technique>
      </profile_COMMON>
    </effect>
  </library_effects>
  <library_materials>
    <material id="route_preview_material" name="route_preview_material">
      <instance_effect url="#route_preview_effect"/>
    </material>
  </library_materials>
  <library_geometries>
    <geometry id="route_preview_geometry" name="route_preview_geometry">
      <mesh>
        <source id="route_preview_positions">
          <float_array id="route_preview_positions_array" count="228">0.492188 0.601250 0.070000 0.492188 0.561250 0.070000 0.890625 0.561250 0.070000 0.890625 0.601250 0.070000 0.910625 0.581250 0.070000 0.870625 0.581250 0.070000 0.870625 0.018750 0.070000 0.910625 0.018750 0.070000 1.828125 -1.454375 0.070000 1.828125 -1.414375 0.070000 -0.515625 -1.414375 0.070000 -0.515625 -1.454375 0.070000 2.189099 -1.264522 0.070000 2.170276 -1.229228 0.070000 1.818713 -1.416728 0.070000 1.837537 -1.452022 0.070000 -1.813632 -1.452264 0.070000 -1.795743 -1.416486 0.070000 -2.170743 -1.228986 0.070000 -2.188632 -1.264764 0.070000 -0.515625 -1.454375 0.070000 -0.515625 -1.414375 0.070000 -1.804688 -1.414375 0.070000 -1.804688 -1.454375 0.070000 2.199688 0.581250 0.070000 2.159687 0.581250 0.070000 2.159687 -1.246875 0.070000 2.199688 -1.246875 0.070000 0.492188 0.601250 0.070000 0.492188 0.561250 0.070000 2.179688 0.561250 0.070000 2.179688 0.601250 0.070000 2.199688 2.104687 0.070000 2.159687 2.104687 0.070000 2.159687 0.581250 0.070000 2.199688 0.581250 0.070000 -0.535625 -1.434375 0.070000 -0.495625 -1.434375 0.070000 -0.495625 0.581250 0.070000 -0.535625 0.581250 0.070000 -2.179688 0.601250 0.070000 -2.179688 0.561250 0.070000 -0.515625 0.561250 0.070000 -0.515625 0.601250 0.070000 -0.515625 0.601250 0.070000 -0.515625 0.561250 0.070000 0.492188 0.561250 0.070000 0.492188 0.601250 0.070000 -2.199688 -1.246875 0.070000 -2.159687 -1.246875 0.070000 -2.159687 0.581250 0.070000 -2.199688 0.581250 0.070000 -2.199688 0.581250 0.070000 -2.159687 0.581250 0.070000 -2.159687 2.104687 0.070000 -2.199688 2.104687 0.070000 0.472187 0.581250 0.070000 0.512188 0.581250 0.070000 0.512188 2.479687 0.070000 0.472187 2.479687 0.070000 -1.804688 2.499687 0.070000 -1.804688 2.459687 0.070000 0.492188 2.459687 0.070000 0.492188 2.499687 0.070000 1.842716 2.493366 0.070000 1.813534 2.466009 0.070000 2.165097 2.091009 0.070000 2.194278 2.118366 0.070000 0.492188 2.499687 0.070000 0.492188 2.459687 0.070000 1.828125 2.459687 0.070000 1.828125 2.499687 0.070000 -2.193830 2.118830 0.070000 -2.165545 2.090545 0.070000 -1.790545 2.465545 0.070000 -1.818830 2.493830 0.070000</float_array>
          <technique_common>
            <accessor source="#route_preview_positions_array" count="76" stride="3">
              <param name="X" type="float"/>
              <param name="Y" type="float"/>
              <param name="Z" type="float"/>
            </accessor>
          </technique_common>
        </source>
        <vertices id="route_preview_vertices">
          <input semantic="POSITION" source="#route_preview_positions"/>
        </vertices>
        <triangles material="route_preview_material" count="76">
          <input semantic="VERTEX" source="#route_preview_vertices" offset="0"/>
          <p>0 1 2 0 2 3 2 1 0 3 2 0 4 5 6 4 6 7 6 5 4 7 6 4 8 9 10 8 10 11 10 9 8 11 10 8 12 13 14 12 14 15 14 13 12 15 14 12 16 17 18 16 18 19 18 17 16 19 18 16 20 21 22 20 22 23 22 21 20 23 22 20 24 25 26 24 26 27 26 25 24 27 26 24 28 29 30 28 30 31 30 29 28 31 30 28 32 33 34 32 34 35 34 33 32 35 34 32 36 37 38 36 38 39 38 37 36 39 38 36 40 41 42 40 42 43 42 41 40 43 42 40 44 45 46 44 46 47 46 45 44 47 46 44 48 49 50 48 50 51 50 49 48 51 50 48 52 53 54 52 54 55 54 53 52 55 54 52 56 57 58 56 58 59 58 57 56 59 58 56 60 61 62 60 62 63 62 61 60 63 62 60 64 65 66 64 66 67 66 65 64 67 66 64 68 69 70 68 70 71 70 69 68 71 70 68 72 73 74 72 74 75 74 73 72 75 74 72</p>
        </triangles>
      </mesh>
    </geometry>
  </library_geometries>
  <library_visual_scenes>
    <visual_scene id="Scene" name="Scene">
      <node id="route_preview_node" name="route_preview_node">
        <instance_geometry url="#route_preview_geometry">
          <bind_material>
            <technique_common>
              <instance_material symbol="route_preview_material" target="#route_preview_material"/>
            </technique_common>
          </bind_material>
        </instance_geometry>
      </node>
    </visual_scene>
  </library_visual_scenes>
  <scene><instance_visual_scene url="#Scene"/></scene>
</COLLADA>
