<?xml version="1.0" encoding="utf-8"?>
<COLLADA xmlns="http://www.collada.org/2005/11/COLLADASchema" version="1.4.1">
  <asset>
    <contributor><authoring_tool>mirrored_world_lab route preview generator</authoring_tool></contributor>
    <unit name="meter" meter="1"/>
    <up_axis>Z_UP</up_axis>
  </asset>
  <library_effects>
    <effect id="route_preview_effect">
      <profile_COMMON>
        <technique sid="common">
          <constant>
            <emission><color>1.0 0.0 1.0 1.0</color></emission>
          </constant>
        </technique>
      </profile_COMMON>
    </effect>
  </library_effects>
  <library_materials>
    <material id="route_preview_material" name="route_preview_material">
      <instance_effect url="#route_preview_effect"/>
    </material>
  </library_materials>
  <library_geometries>
    <geometry id="route_preview_geometry" name="route_preview_geometry">
      <mesh>
        <source id="route_preview_positions">
          <float_array id="route_preview_positions_array" count="1500">-1.828125 2.189687 0.040000 -1.828125 2.169688 0.040000 -0.046875 2.169688 0.040000 -0.046875 2.189687 0.040000 -0.046875 2.189687 0.040000 -0.046875 2.169688 0.040000 0.468750 2.169688 0.040000 0.468750 2.189687 0.040000 0.468750 2.189687 0.040000 0.468750 2.169688 0.040000 0.937500 2.169688 0.040000 0.937500 2.189687 0.040000 0.937500 2.189687 0.040000 0.937500 2.169688 0.040000 1.804688 2.169688 0.040000 1.804688 2.189687 0.040000 1.804688 2.189687 0.040000 1.804688 2.169688 0.040000 1.875000 2.169688 0.040000 1.875000 2.189687 0.040000 1.882071 2.186759 0.040000 1.867929 2.172616 0.040000 1.891366 2.149179 0.040000 1.905509 2.163321 0.040000 1.898438 2.166250 0.040000 1.898438 2.146250 0.040000 1.968750 2.146250 0.040000 1.968750 2.166250 0.040000 1.975821 2.163321 0.040000 1.961679 2.149179 0.040000 1.985116 2.125741 0.040000 1.999259 2.139884 0.040000 1.992188 2.142812 0.040000 1.992188 2.122813 0.040000 2.062500 2.122813 0.040000 2.062500 2.142812 0.040000 2.069571 2.139884 0.040000 2.055429 2.125741 0.040000 2.172616 2.008554 0.040000 2.186759 2.022696 0.040000 2.189687 2.015625 0.040000 2.169688 2.015625 0.040000 2.169688 1.828125 0.040000 2.189687 1.828125 0.040000 2.189675 1.828624 0.040000 2.169700 1.827626 0.040000 2.216575 0.890126 0.040000 2.236550 0.891124 0.040000 2.236562 0.890625 0.040000 2.216563 0.890625 0.040000 2.216563 -0.515625 0.040000 2.236562 -0.515625 0.040000 2.236556 -0.515988 0.040000 2.216569 -0.515262 0.040000 2.169694 -1.804324 0.040000 2.189681 -1.805051 0.040000 2.179688 -1.814688 0.040000 2.179688 -1.794687 0.040000 2.156250 -1.794687 0.040000 2.156250 -1.814688 0.040000 2.163321 -1.811759 0.040000 2.149179 -1.797616 0.040000 2.102304 -1.844491 0.040000 2.116446 -1.858634 0.040000 2.109375 -1.861563 0.040000 2.109375 -1.841562 0.040000 1.804688 -1.841562 0.040000 1.804688 -1.861563 0.040000 1.804688 -1.861563 0.040000 1.804688 -1.841562 0.040000 0.937500 -1.841562 0.040000 0.937500 -1.861563 0.040000 0.937500 -1.861563 0.040000 0.937500 -1.841562 0.040000 -0.046875 -1.841562 0.040000 -0.046875 -1.861563 0.040000 -0.046875 -1.861563 0.040000 -0.046875 -1.841562 0.040000 -1.031250 -1.841562 0.040000 -1.031250 -1.861563 0.040000 -1.031250 -1.861563 0.040000 -1.031250 -1.841562 0.040000 -1.828125 -1.841562 0.040000 -1.828125 -1.861563 0.040000 -1.828125 -1.861563 0.040000 -1.828125 -1.841562 0.040000 -2.109375 -1.841562 0.040000 -2.109375 -1.861563 0.040000 -2.116446 -1.858634 0.040000 -2.102304 -1.844491 0.040000 -2.149179 -1.797616 0.040000 -2.163321 -1.811759 0.040000 -2.156250 -1.814688 0.040000 -2.156250 -1.794687 0.040000 -2.179688 -1.794687 0.040000 -2.179688 -1.814688 0.040000 -2.189684 -1.804947 0.040000 -2.169691 -1.804428 0.040000 -2.216566 0.000260 0.040000 -2.236559 -0.000260 0.040000 -2.236562 0.000000 0.040000 -2.216563 0.000000 0.040000 -2.216563 0.140625 0.040000 -2.236562 0.140625 0.040000 -2.233634 0.147696 0.040000 -2.219491 0.133554 0.040000 -2.196054 0.156991 0.040000 -2.210196 0.171134 0.040000 -2.213125 0.164062 0.040000 -2.193125 0.164062 0.040000 -2.193125 0.210938 0.040000 -2.213125 0.210938 0.040000 -2.210196 0.218009 0.040000 -2.196054 0.203866 0.040000 -2.172616 0.227304 0.040000 -2.186759 0.241446 0.040000 -2.189631 0.233310 0.040000 -2.169744 0.235440 0.040000 -2.240057 0.891690 0.040000 -2.259943 0.889560 0.040000 -2.259997 0.890881 0.040000 -2.240003 0.890369 0.040000 -2.216566 1.804431 0.040000 -2.236559 1.804944 0.040000 -2.236562 1.804688 0.040000 -2.216563 1.804688 0.040000 -2.216563 1.968750 0.040000 -2.236562 1.968750 0.040000 -2.233634 1.975821 0.040000 -2.219491 1.961679 0.040000 -2.055429 2.125741 0.040000 -2.069571 2.139884 0.040000 -2.062500 2.142812 0.040000 -2.062500 2.122813 0.040000 -2.039062 2.122813 0.040000 -2.039062 2.142812 0.040000 -2.046134 2.139884 0.040000 -2.031991 2.125741 0.040000 -2.008554 2.149179 0.040000 -2.022696 2.163321 0.040000 -2.015625 2.166250 0.040000 -2.015625 2.146250 0.040000 -1.945312 2.146250 0.040000 -1.945312 2.166250 0.040000 -1.952384 2.163321 0.040000 -1.938241 2.149179 0.040000 -1.914804 2.172616 0.040000 -1.928946 2.186759 0.040000 -1.921875 2.189687 0.040000 -1.921875 2.169688 0.040000 -1.828125 2.169688 0.040000 -1.828125 2.189687 0.040000 0.478750 2.179688 0.040000 0.458750 2.179688 0.040000 0.458750 0.351562 0.040000 0.478750 0.351562 0.040000 0.468750 0.361563 0.040000 0.468750 0.341562 0.040000 2.179688 0.341562 0.040000 2.179688 0.361563 0.040000 2.189673 0.352102 0.040000 2.169702 0.351023 0.040000 2.216577 -0.516165 0.040000 2.236548 -0.515085 0.040000 -2.186759 0.241446 0.040000 -2.172616 0.227304 0.040000 -2.055429 0.344491 0.040000 -2.069571 0.358634 0.040000 -2.062500 0.361563 0.040000 -2.062500 0.341562 0.040000 -1.546875 0.341562 0.040000 -1.546875 0.361563 0.040000 -1.545746 0.361499 0.040000 -1.548004 0.341626 0.040000 -0.516754 0.224439 0.040000 -0.514496 0.244311 0.040000 -0.515625 0.244375 0.040000 -0.515625 0.224375 0.040000 -0.492188 0.224375 0.040000 -0.492188 0.244375 0.040000 -0.499259 0.241446 0.040000 -0.485116 0.227304 0.040000 -0.461679 0.250741 0.040000 -0.475821 0.264884 0.040000 -0.468750 0.267813 0.040000 -0.468750 0.247812 0.040000 -0.445312 0.247812 0.040000 -0.445312 0.267813 0.040000 -0.452384 0.264884 0.040000 -0.438241 0.250741 0.040000 -0.414804 0.274179 0.040000 -0.428946 0.288321 0.040000 -0.421875 0.291250 0.040000 -0.421875 0.271250 0.040000 -0.375000 0.271250 0.040000 -0.375000 0.291250 0.040000 -0.382071 0.288321 0.040000 -0.367929 0.274179 0.040000 -0.344491 0.297616 0.040000 -0.358634 0.311759 0.040000 -0.351562 0.314688 0.040000 -0.351562 0.294687 0.040000 -0.328125 0.294687 0.040000 -0.328125 0.314688 0.040000 -0.335196 0.311759 0.040000 -0.321054 0.297616 0.040000 -0.297616 0.321054 0.040000 -0.311759 0.335196 0.040000 -0.304688 0.338125 0.040000 -0.304688 0.318125 0.040000 -0.234375 0.318125 0.040000 -0.234375 0.338125 0.040000 -0.241446 0.335196 0.040000 -0.227304 0.321054 0.040000 -0.203866 0.344491 0.040000 -0.218009 0.358634 0.040000 -0.210938 0.361563 0.040000 -0.210938 0.341562 0.040000 -0.070312 0.341562 0.040000 -0.070312 0.361563 0.040000 -0.077384 0.358634 0.040000 -0.063241 0.344491 0.040000 -0.039804 0.367929 0.040000 -0.053946 0.382071 0.040000 -0.046875 0.385000 0.040000 -0.046875 0.365000 0.040000 0.468750 0.365000 0.040000 0.468750 0.385000 0.040000 0.475821 0.382071 0.040000 0.461679 0.367929 0.040000 0.485116 0.344491 0.040000 0.499259 0.358634 0.040000 0.502188 0.351562 0.040000 0.482187 0.351562 0.040000 0.482187 0.328125 0.040000 0.502188 0.328125 0.040000 0.492188 0.338125 0.040000 0.492188 0.318125 0.040000 1.078125 0.318125 0.040000 1.078125 0.338125 0.040000 1.071054 0.335196 0.040000 1.085196 0.321054 0.040000 1.108634 0.344491 0.040000 1.094491 0.358634 0.040000 1.101562 0.361563 0.040000 1.101562 0.341562 0.040000 1.265625 0.341562 0.040000 1.265625 0.361563 0.040000 1.258554 0.358634 0.040000 1.272696 0.344491 0.040000 1.296134 0.367929 0.040000 1.281991 0.382071 0.040000 1.289062 0.385000 0.040000 1.289062 0.365000 0.040000 2.039062 0.365000 0.040000 2.039062 0.385000 0.040000 2.046134 0.382071 0.040000 2.031991 0.367929 0.040000 2.172616 0.227304 0.040000 2.186759 0.241446 0.040000 2.189668 0.234999 0.040000 2.169707 0.233751 0.040000 2.216582 -0.516249 0.040000 2.236543 -0.515001 0.040000 -0.053946 -1.858634 0.040000 -0.039804 -1.844491 0.040000 -0.063241 -1.821054 0.040000 -0.077384 -1.835196 0.040000 -0.070312 -1.838125 0.040000 -0.070312 -1.818125 0.040000 -0.164062 -1.818125 0.040000 -0.164062 -1.838125 0.040000 -0.171134 -1.835196 0.040000 -0.156991 -1.821054 0.040000 -0.203866 -1.774179 0.040000 -0.218009 -1.788321 0.040000 -0.220938 -1.781250 0.040000 -0.200937 -1.781250 0.040000 -0.200937 -1.757812 0.040000 -0.220938 -1.757812 0.040000 -0.210938 -1.767813 0.040000 -0.210938 -1.747812 0.040000 -0.281250 -1.747812 0.040000 -0.281250 -1.767813 0.040000 -0.288321 -1.764884 0.040000 -0.274179 -1.750741 0.040000 -0.508554 -1.516366 0.040000 -0.522696 -1.530509 0.040000 -0.525625 -1.523438 0.040000 -0.505625 -1.523438 0.040000 -0.505625 0.351562 0.040000 -0.525625 0.351562 0.040000 -0.515625 0.341562 0.040000 -0.515625 0.361563 0.040000 -1.945312 0.361563 0.040000 -1.945312 0.341562 0.040000 -1.938241 0.344491 0.040000 -1.952384 0.358634 0.040000 -2.233634 0.077384 0.040000 -2.219491 0.063241 0.040000 -2.216563 0.070312 0.040000 -2.236562 0.070312 0.040000 -2.236562 0.000000 0.040000 -2.216563 0.000000 0.040000 2.216582 -0.516249 0.040000 2.236543 -0.515001 0.040000 2.189668 0.234999 0.040000 2.169707 0.233751 0.040000 2.172616 0.227304 0.040000 2.186759 0.241446 0.040000 2.046134 0.382071 0.040000 2.031991 0.367929 0.040000 2.039062 0.365000 0.040000 2.039062 0.385000 0.040000 1.265625 0.385000 0.040000 1.265625 0.365000 0.040000 1.272696 0.367929 0.040000 1.258554 0.382071 0.040000 1.235116 0.358634 0.040000 1.249259 0.344491 0.040000 1.242188 0.341562 0.040000 1.242188 0.361563 0.040000 1.101562 0.361563 0.040000 1.101562 0.341562 0.040000 1.108634 0.344491 0.040000 1.094491 0.358634 0.040000 1.071054 0.335196 0.040000 1.085196 0.321054 0.040000 1.078125 0.318125 0.040000 1.078125 0.338125 0.040000 0.492188 0.338125 0.040000 0.492188 0.318125 0.040000 0.482187 0.328125 0.040000 0.502188 0.328125 0.040000 0.502188 0.351562 0.040000 0.482187 0.351562 0.040000 0.485116 0.344491 0.040000 0.499259 0.358634 0.040000 0.475821 0.382071 0.040000 0.461679 0.367929 0.040000 0.468750 0.365000 0.040000 0.468750 0.385000 0.040000 -0.070312 0.385000 0.040000 -0.070312 0.365000 0.040000 -0.063241 0.367929 0.040000 -0.077384 0.382071 0.040000 -0.100821 0.358634 0.040000 -0.086679 0.344491 0.040000 -0.093750 0.341562 0.040000 -0.093750 0.361563 0.040000 -0.210938 0.361563 0.040000 -0.210938 0.341562 0.040000 -0.203866 0.344491 0.040000 -0.218009 0.358634 0.040000 -0.241446 0.335196 0.040000 -0.227304 0.321054 0.040000 -0.234375 0.318125 0.040000 -0.234375 0.338125 0.040000 -0.304688 0.338125 0.040000 -0.304688 0.318125 0.040000 -0.297616 0.321054 0.040000 -0.311759 0.335196 0.040000 -0.335196 0.311759 0.040000 -0.321054 0.297616 0.040000 -0.328125 0.294687 0.040000 -0.328125 0.314688 0.040000 -0.375000 0.314688 0.040000 -0.375000 0.294687 0.040000 -0.367929 0.297616 0.040000 -0.382071 0.311759 0.040000 -0.405509 0.288321 0.040000 -0.391366 0.274179 0.040000 -0.398438 0.271250 0.040000 -0.398438 0.291250 0.040000 -0.421875 0.291250 0.040000 -0.421875 0.271250 0.040000 -0.414804 0.274179 0.040000 -0.428946 0.288321 0.040000 -0.452384 0.264884 0.040000 -0.438241 0.250741 0.040000 -0.445312 0.247812 0.040000 -0.445312 0.267813 0.040000 -0.492188 0.267813 0.040000 -0.492188 0.247812 0.040000 -0.485116 0.250741 0.040000 -0.499259 0.264884 0.040000 -0.522696 0.241446 0.040000 -0.508554 0.227304 0.040000 -0.516754 0.224439 0.040000 -0.514496 0.244311 0.040000 -1.545746 0.361499 0.040000 -1.548004 0.341626 0.040000 -1.546875 0.341562 0.040000 -1.546875 0.361563 0.040000 -2.062500 0.361563 0.040000 -2.062500 0.341562 0.040000 -2.055429 0.344491 0.040000 -2.069571 0.358634 0.040000 -2.186759 0.241446 0.040000 -2.172616 0.227304 0.040000 -2.186759 0.241446 0.040000 -2.172616 0.227304 0.040000 -2.055429 0.344491 0.040000 -2.069571 0.358634 0.040000 -2.062500 0.361563 0.040000 -2.062500 0.341562 0.040000 -1.546875 0.341562 0.040000 -1.546875 0.361563 0.040000 -1.545746 0.361499 0.040000 -1.548004 0.341626 0.040000 -0.516754 0.224439 0.040000 -0.514496 0.244311 0.040000 -0.515625 0.244375 0.040000 -0.515625 0.224375 0.040000 -0.492188 0.224375 0.040000 -0.492188 0.244375 0.040000 -0.499259 0.241446 0.040000 -0.485116 0.227304 0.040000 -0.461679 0.250741 0.040000 -0.475821 0.264884 0.040000 -0.468750 0.267813 0.040000 -0.468750 0.247812 0.040000 -0.445312 0.247812 0.040000 -0.445312 0.267813 0.040000 -0.452384 0.264884 0.040000 -0.438241 0.250741 0.040000 -0.414804 0.274179 0.040000 -0.428946 0.288321 0.040000 -0.421875 0.291250 0.040000 -0.421875 0.271250 0.040000 -0.375000 0.271250 0.040000 -0.375000 0.291250 0.040000 -0.382071 0.288321 0.040000 -0.367929 0.274179 0.040000 -0.344491 0.297616 0.040000 -0.358634 0.311759 0.040000 -0.351562 0.314688 0.040000 -0.351562 0.294687 0.040000 -0.328125 0.294687 0.040000 -0.328125 0.314688 0.040000 -0.335196 0.311759 0.040000 -0.321054 0.297616 0.040000 -0.297616 0.321054 0.040000 -0.311759 0.335196 0.040000 -0.304688 0.338125 0.040000 -0.304688 0.318125 0.040000 -0.234375 0.318125 0.040000 -0.234375 0.338125 0.040000 -0.241446 0.335196 0.040000 -0.227304 0.321054 0.040000 -0.203866 0.344491 0.040000 -0.218009 0.358634 0.040000 -0.210938 0.361563 0.040000 -0.210938 0.341562 0.040000 -0.070312 0.341562 0.040000 -0.070312 0.361563 0.040000 -0.077384 0.358634 0.040000 -0.063241 0.344491 0.040000 -0.039804 0.367929 0.040000 -0.053946 0.382071 0.040000 -0.046875 0.385000 0.040000 -0.046875 0.365000 0.040000 0.468750 0.365000 0.040000 0.468750 0.385000 0.040000 0.475821 0.382071 0.040000 0.461679 0.367929 0.040000 0.485116 0.344491 0.040000 0.499259 0.358634 0.040000 0.502188 0.351562 0.040000 0.482187 0.351562 0.040000 0.482187 0.328125 0.040000 0.502188 0.328125 0.040000 0.492188 0.338125 0.040000 0.492188 0.318125 0.040000 1.078125 0.318125 0.040000 1.078125 0.338125 0.040000 1.071054 0.335196 0.040000 1.085196 0.321054 0.040000 1.108634 0.344491 0.040000 1.094491 0.358634 0.040000 1.101562 0.361563 0.040000 1.101562 0.341562 0.040000 1.265625 0.341562 0.040000 1.265625 0.361563 0.040000 1.258554 0.358634 0.040000 1.272696 0.344491 0.040000 1.296134 0.367929 0.040000 1.281991 0.382071 0.040000 1.289062 0.385000 0.040000 1.289062 0.365000 0.040000 2.039062 0.365000 0.040000 2.039062 0.385000 0.040000 2.046134 0.382071 0.040000 2.031991 0.367929 0.040000 2.172616 0.227304 0.040000 2.186759 0.241446 0.040000 2.189668 0.234999 0.040000 2.169707 0.233751 0.040000 2.216582 -0.516249 0.040000 2.236543 -0.515001 0.040000</float_array>
          <technique_common>
            <accessor source="#route_preview_positions_array" count="500" stride="3">
              <param name="X" type="float"/>
              <param name="Y" type="float"/>
              <param name="Z" type="float"/>
            </accessor>
          </technique_common>
        </source>
        <vertices id="route_preview_vertices">
          <input semantic="POSITION" source="#route_preview_positions"/>
        </vertices>
        <triangles material="route_preview_material" count="500">
          <input semantic="VERTEX" source="#route_preview_vertices" offset="0"/>
          <p>0 1 2 0 2 3 2 1 0 3 2 0 4 5 6 4 6 7 6 5 4 7 6 4 8 9 10 8 10 11 10 9 8 11 10 8 12 13 14 12 14 15 14 13 12 15 14 12 16 17 18 16 18 19 18 17 16 19 18 16 20 21 22 20 22 23 22 21 20 23 22 20 24 25 26 24 26 27 26 25 24 27 26 24 28 29 30 28 30 31 30 29 28 31 30 28 32 33 34 32 34 35 34 33 32 35 34 32 36 37 38 36 38 39 38 37 36 39 38 36 40 41 42 40 42 43 42 41 40 43 42 40 44 45 46 44 46 47 46 45 44 47 46 44 48 49 50 48 50 51 50 49 48 51 50 48 52 53 54 52 54 55 54 53 52 55 54 52 56 57 58 56 58 59 58 57 56 59 58 56 60 61 62 60 62 63 62 61 60 63 62 60 64 65 66 64 66 67 66 65 64 67 66 64 68 69 70 68 70 71 70 69 68 71 70 68 72 73 74 72 74 75 74 73 72 75 74 72 76 77 78 76 78 79 78 77 76 79 78 76 80 81 82 80 82 83 82 81 80 83 82 80 84 85 86 84 86 87 86 85 84 87 86 84 88 89 90 88 90 91 90 89 88 91 90 88 92 93 94 92 94 95 94 93 92 95 94 92 96 97 98 96 98 99 98 97 96 99 98 96 100 101 102 100 102 103 102 101 100 103 102 100 104 105 106 104 106 107 106 105 104 107 106 104 108 109 110 108 110 111 110 109 108 111 110 108 112 113 114 112 114 115 114 113 112 115 114 112 116 117 118 116 118 119 118 117 116 119 118 116 120 121 122 120 122 123 122 121 120 123 122 120 124 125 126 124 126 127 126 125 124 127 126 124 128 129 130 128 130 131 130 129 128 131 130 128 132 133 134 132 134 135 134 133 132 135 134 132 136 137 138 136 138 139 138 137 136 139 138 136 140 141 142 140 142 143 142 141 140 143 142 140 144 145 146 144 146 147 146 145 144 147 146 144 148 149 150 148 150 151 150 149 148 151 150 148 152 153 154 152 154 155 154 153 152 155 154 152 156 157 158 156 158 159 158 157 156 159 158 156 160 161 162 160 162 163 162 161 160 163 162 160 164 165 166 164 166 167 166 165 164 167 166 164 168 169 170 168 170 171 170 169 168 171 170 168 172 173 174 172 174 175 174 173 172 175 174 172 176 177 178 176 178 179 178 177 176 179 178 176 180 181 182 180 182 183 182 181 180 183 182 180 184 185 186 184 186 187 186 185 184 187 186 184 188 189 190 188 190 191 190 189 188 191 190 188 192 193 194 192 194 195 194 193 192 195 194 192 196 197 198 196 198 199 198 197 196 199 198 196 200 201 202 200 202 203 202 201 200 203 202 200 204 205 206 204 206 207 206 205 204 207 206 204 208 209 210 208 210 211 210 209 208 211 210 208 212 213 214 212 214 215 214 213 212 215 214 212 216 217 218 216 218 219 218 217 216 219 218 216 220 221 222 220 222 223 222 221 220 223 222 220 224 225 226 224 226 227 226 225 224 227 226 224 228 229 230 228 230 231 230 229 228 231 230 228 232 233 234 232 234 235 234 233 232 235 234 232 236 237 238 236 238 239 238 237 236 239 238 236 240 241 242 240 242 243 242 241 240 243 242 240 244 245 246 244 246 247 246 245 244 247 246 244 248 249 250 248 250 251 250 249 248 251 250 248 252 253 254 252 254 255 254 253 252 255 254 252 256 257 258 256 258 259 258 257 256 259 258 256 260 261 262 260 262 263 262 261 260 263 262 260 264 265 266 264 266 267 266 265 264 267 266 264 268 269 270 268 270 271 270 269 268 271 270 268 272 273 274 272 274 275 274 273 272 275 274 272 276 277 278 276 278 279 278 277 276 279 278 276 280 281 282 280 282 283 282 281 280 283 282 280 284 285 286 284 286 287 286 285 284 287 286 284 288 289 290 288 290 291 290 289 288 291 290 288 292 293 294 292 294 295 294 293 292 295 294 292 296 297 298 296 298 299 298 297 296 299 298 296 300 301 302 300 302 303 302 301 300 303 302 300 304 305 306 304 306 307 306 305 304 307 306 304 308 309 310 308 310 311 310 309 308 311 310 308 312 313 314 312 314 315 314 313 312 315 314 312 316 317 318 316 318 319 318 317 316 319 318 316 320 321 322 320 322 323 322 321 320 323 322 320 324 325 326 324 326 327 326 325 324 327 326 324 328 329 330 328 330 331 330 329 328 331 330 328 332 333 334 332 334 335 334 333 332 335 334 332 336 337 338 336 338 339 338 337 336 339 338 336 340 341 342 340 342 343 342 341 340 343 342 340 344 345 346 344 346 347 346 345 344 347 346 344 348 349 350 348 350 351 350 349 348 351 350 348 352 353 354 352 354 355 354 353 352 355 354 352 356 357 358 356 358 359 358 357 356 359 358 356 360 361 362 360 362 363 362 361 360 363 362 360 364 365 366 364 366 367 366 365 364 367 366 364 368 369 370 368 370 371 370 369 368 371 370 368 372 373 374 372 374 375 374 373 372 375 374 372 376 377 378 376 378 379 378 377 376 379 378 376 380 381 382 380 382 383 382 381 380 383 382 380 384 385 386 384 386 387 386 385 384 387 386 384 388 389 390 388 390 391 390 389 388 391 390 388 392 393 394 392 394 395 394 393 392 395 394 392 396 397 398 396 398 399 398 397 396 399 398 396 400 401 402 400 402 403 402 401 400 403 402 400 404 405 406 404 406 407 406 405 404 407 406 404 408 409 410 408 410 411 410 409 408 411 410 408 412 413 414 412 414 415 414 413 412 415 414 412 416 417 418 416 418 419 418 417 416 419 418 416 420 421 422 420 422 423 422 421 420 423 422 420 424 425 426 424 426 427 426 425 424 427 426 424 428 429 430 428 430 431 430 429 428 431 430 428 432 433 434 432 434 435 434 433 432 435 434 432 436 437 438 436 438 439 438 437 436 439 438 436 440 441 442 440 442 443 442 441 440 443 442 440 444 445 446 444 446 447 446 445 444 447 446 444 448 449 450 448 450 451 450 449 448 451 450 448 452 453 454 452 454 455 454 453 452 455 454 452 456 457 458 456 458 459 458 457 456 459 458 456 460 461 462 460 462 463 462 461 460 463 462 460 464 465 466 464 466 467 466 465 464 467 466 464 468 469 470 468 470 471 470 469 468 471 470 468 472 473 474 472 474 475 474 473 472 475 474 472 476 477 478 476 478 479 478 477 476 479 478 476 480 481 482 480 482 483 482 481 480 483 482 480 484 485 486 484 486 487 486 485 484 487 486 484 488 489 490 488 490 491 490 489 488 491 490 488 492 493 494 492 494 495 494 493 492 495 494 492 496 497 498 496 498 499 498 497 496 499 498 496</p>
        </triangles>
      </mesh>
    </geometry>
  </library_geometries>
  <library_visual_scenes>
    <visual_scene id="Scene" name="Scene">
      <node id="route_preview_node" name="route_preview_node">
        <instance_geometry url="#route_preview_geometry">
          <bind_material>
            <technique_common>
              <instance_material symbol="route_preview_material" target="#route_preview_material"/>
            </technique_common>
          </bind_material>
        </instance_geometry>
      </node>
    </visual_scene>
  </library_visual_scenes>
  <scene><instance_visual_scene url="#Scene"/></scene>
</COLLADA>
